<?xml version="1.0" encoding="UTF-8"?>
<svg width="1590.19189" height="383.7915" version="1.1" viewBox="0 0 1590.19189 383.7915" xml:space="preserve" xmlns="http://www.w3.org/2000/svg" xmlns:cc="http://creativecommons.org/ns#" xmlns:dc="http://purl.org/dc/elements/1.1/" xmlns:rdf="http://www.w3.org/1999/02/22-rdf-syntax-ns#" xmlns:xlink="http://www.w3.org/1999/xlink"><title>DoD Logo Dark</title><metadata><rdf:RDF><cc:Work rdf:about=""><dc:format>image/svg+xml</dc:format><dc:type rdf:resource="http://purl.org/dc/dcmitype/StillImage"/><dc:title>DoD Logo Dark</dc:title></cc:Work></rdf:RDF></metadata>
<g fill="#141414">
	<path d="m509.9 156.3c1.0371 0 4.8042-0.16113 11.297-0.4873 0.12988 0.38965 0.19531 0.84473 0.19531 1.3643 0 0.97363-0.13037 1.4609-0.38916 1.4609-0.6499 0-1.8188 0.22803-3.5059 0.68213-1.689 0.45459-2.5981 0.90967-2.728 1.3628-0.58398 2.2734-0.87598 5.293-0.87598 9.0581v21.718c0 7.3394 1.5576 13.183 4.6748 17.531 3.1162 4.3516 7.5322 6.5264 13.245 6.5264 11.103 0 16.655-7.3047 16.655-21.914v-24.349c0-3.959-0.229-6.8174-0.68164-8.5703-0.19531-0.51855-1.3154-1.0225-3.3604-1.5098s-3.4917-0.73047-4.334-0.73047c-0.25977 0-0.38965-0.37256-0.38965-1.1201 0-0.74512 0.12988-1.249 0.38965-1.5098 0.84229 0.06543 2.5322 0.17969 5.064 0.34082 2.5322 0.16309 4.6753 0.24414 6.4282 0.24414 1.687 0 3.813-0.09766 6.3799-0.29199 2.563-0.19531 4.0732-0.29297 4.5278-0.29297 0.13037 0.38965 0.19531 0.87695 0.19531 1.4609 0 0.7793-0.13037 1.169-0.38916 1.169-0.65088 0-2.063 0.26074-4.2378 0.7793-2.1753 0.52051-3.3281 1.0078-3.457 1.4609-0.52002 2.0137-0.7793 5.0322-0.7793 9.0581v23.666c0 10.065-2.1099 17.061-6.3296 20.987-4.2222 3.9307-10.227 5.8936-18.018 5.8936-7.727 0-13.668-2.2725-17.823-6.8174-4.1558-4.544-6.2329-11.882-6.2329-22.012v-22.108c0-4.0249-0.229-6.915-0.68213-8.668-0.19385-0.51855-1.1201-0.98926-2.7749-1.4121-1.6562-0.42139-2.9072-0.63281-3.75-0.63281-0.25977 0-0.39014-0.42188-0.39014-1.2666 0-0.7793 0.13037-1.2978 0.39014-1.5586 7.4658 0.32615 11.361 0.48729 11.687 0.48729z"/>
	<path d="m562.11 219.95c-1.1367-1.1357-1.7041-2.4824-1.7041-4.041s0.56738-2.873 1.7041-3.9443c1.1362-1.0713 2.4849-1.6084 4.042-1.6084 1.5591 0 2.873 0.53711 3.9448 1.6084 1.0713 1.0713 1.6074 2.3857 1.6074 3.9443s-0.53613 2.9053-1.6074 4.041c-1.0718 1.1348-2.3857 1.7051-3.9448 1.7051-1.5571 0-2.9058-0.57031-4.042-1.7051z"/>
	<path d="m583.06 172.57c0-4.999 1.9141-9.1069 5.7461-12.321 3.8301-3.2139 8.2783-4.8203 13.342-4.8203 1.4268 0 2.7759 0.08203 4.042 0.24316 1.2661 0.16309 2.3037 0.34082 3.1167 0.53516 0.81006 0.19531 1.979 0.50391 3.5049 0.92578 1.5264 0.42285 2.874 0.76367 4.042 1.0225 0.78027 3.4424 1.1694 8.0845 1.1694 13.927 0 0.45508-0.32617 0.68213-0.97412 0.68213-1.5581 0-2.4028-0.32422-2.5312-0.97412-0.32666-2.8569-1.706-5.6318-4.1396-8.3276-2.4351-2.6934-5.4053-4.042-8.9111-4.042-3.897 0-6.6401 0.97461-8.231 2.9219-1.5913 1.9487-2.3852 4.352-2.3852 7.207 0 1.2349 0.22607 2.4199 0.68115 3.5557 0.45313 1.1372 0.9082 2.0781 1.3628 2.8242 0.45508 0.74707 1.2822 1.6069 2.4844 2.581 1.2012 0.97412 2.0781 1.6558 2.6299 2.0449 0.55078 0.39014 1.6562 1.105 3.311 2.1431 1.6558 1.0391 2.71 1.689 3.165 1.9478 0.32471 0.19434 1.4609 0.89307 3.4097 2.0942 1.9473 1.2022 3.2773 2.0449 3.9932 2.5317 0.71436 0.48633 1.834 1.3633 3.3589 2.6304 1.5254 1.2651 2.6304 2.3862 3.312 3.3599 0.68115 0.97363 1.3301 2.1904 1.9482 3.6514 0.61621 1.4609 0.9248 2.9717 0.9248 4.5293 0 5.1963-2.0298 9.4648-6.0869 12.807-4.0591 3.3457-8.814 5.0166-14.268 5.0166-1.5581 0-3.2139-0.11426-4.9678-0.34082-1.7529-0.22852-3.2144-0.45508-4.3809-0.68164-1.1694-0.22656-2.647-0.55078-4.4321-0.97363-1.7871-0.42188-3.0361-0.69824-3.75-0.8291-1.623-7.9863-2.4351-13.146-2.4351-15.484 0-0.39063 0.51904-0.58398 1.5591-0.58398 1.168 0 1.979 0.29102 2.4341 0.875 2.2065 9.3506 7.5967 14.024 16.167 14.024 3.2466 0 6.0049-0.97266 8.2788-2.9209 2.272-1.9473 3.4092-4.706 3.4092-8.2793 0-1.2969-0.19531-2.498-0.58496-3.6025-0.38916-1.1025-0.79639-2.0127-1.2173-2.7275-0.42285-0.71289-1.169-1.4756-2.2398-2.2891-1.0713-0.80957-1.8994-1.4121-2.4834-1.8008-0.58496-0.38965-1.6567-1.0059-3.2139-1.8506-1.5591-0.84277-2.6299-1.4272-3.2139-1.7544-1.8838-1.1025-3.1992-1.8809-3.9448-2.3369-0.74805-0.45361-1.9814-1.25-3.7012-2.3857-1.7212-1.1352-2.9702-2.1431-3.75-3.019-0.77881-0.87695-1.689-1.9482-2.7261-3.2148-1.04-1.2651-1.771-2.6123-2.1919-4.041-0.42187-1.4272-0.63231-2.9224-0.63231-4.48z"/>
	<path d="m629.89 219.95c-1.1367-1.1357-1.7046-2.4824-1.7046-4.041s0.56787-2.873 1.7046-3.9443c1.1352-1.0713 2.4844-1.6084 4.0415-1.6084 1.5591 0 2.8735 0.53711 3.9448 1.6084 1.0708 1.0713 1.6069 2.3857 1.6069 3.9443s-0.53613 2.9053-1.6069 4.041c-1.0713 1.1348-2.3857 1.7051-3.9448 1.7051-1.5571 0-2.9062-0.57031-4.0415-1.7051z"/>
	<path d="m678.11 168.18v38.567c0 2.7275 0.48682 5.1953 1.4609 7.4023 0.25928 0.65039 1.9961 1.1367 5.21 1.4609 3.2144 0.32617 5.6982 0.48828 7.4512 0.48828 14.933 0 22.401-9.6426 22.401-28.927 0-7.4019-1.9648-13.699-5.8931-18.894-3.9287-5.1948-9.6577-7.7925-17.189-7.7925h-0.48779c-7.0122 0-10.908 0.52051-11.687 1.5586-0.84522 1.169-1.2661 3.2139-1.2661 6.1358zm-4.2852-11.784c2.4673 0 5.6001-0.03223 9.3989-0.09766 3.7974-0.06348 6.3135-0.09766 7.5474-0.09766 10.582 0 18.829 3.1177 24.738 9.3496 5.9082 6.2339 8.8628 13.571 8.8628 22.012 0 9.4155-2.9868 17.272-8.9595 23.569-5.9751 6.2988-14.22 9.4463-24.738 9.4463-0.77881 0-3.102-0.06445-6.9639-0.19336-3.8633-0.12988-7.0942-0.16113-9.6899-0.09766l-11.785 0.29102c-0.19482-0.19336-0.29199-0.68164-0.29199-1.4609 0-0.90723 0.09717-1.3623 0.29199-1.3623 0.84277 0 2.0942-0.22754 3.749-0.68262 1.6567-0.45313 2.646-0.97266 2.9712-1.5576 0.45361-0.78027 0.68164-3.831 0.68164-9.1553v-36.815c0-3.8301-0.22803-6.6221-0.68164-8.375-0.19434-0.51953-1.1533-1.0059-2.873-1.4609-1.7212-0.4541-3.0044-0.68164-3.8472-0.68164-0.26025 0-0.38916-0.38965-0.38916-1.169 0-0.84375 0.12891-1.3955 0.38916-1.6562 3.375 0.13087 7.2398 0.19532 11.59 0.19532z"/>
	<path d="m748.27 181.43c-3.376 0-5.957 1.4448-7.7422 4.334-1.7871 2.8901-2.6777 5.2759-2.6777 7.1582 0 0.45605 0.19482 0.68164 0.5835 0.68164h18.992c0.32422 0 0.4873-0.32324 0.4873-0.97363 0-2.0781-0.87744-4.4644-2.6304-7.1592-1.7529-2.6929-4.0908-4.041-7.0127-4.041zm0.9751-3.603c2.9849 0 5.6148 0.56787 7.8887 1.7041 2.271 1.1357 4.0078 2.5967 5.21 4.3828 1.2012 1.7861 2.0772 3.603 2.6299 5.4541 0.55029 1.8491 0.82813 3.6851 0.82813 5.5024 0 1.2988-0.1958 2.0947-0.58496 2.3867-0.38867 0.29199-1.1367 0.4375-2.2398 0.4375h-24.543c-0.51953 0-0.77881 0.16211-0.77881 0.4873 0 4.0908 1.2329 7.8564 3.7002 11.297 2.4668 3.4434 6.0391 5.1631 10.714 5.1631 1.3638 0 2.6611-0.12988 3.896-0.39063 1.2319-0.25781 2.2891-0.56738 3.165-0.92578 0.87695-0.35449 1.6221-0.71289 2.2402-1.0703 0.61572-0.35547 1.1519-0.69629 1.6069-1.0234l0.68164-0.48633c0.39014 0 0.58398 0.42383 0.58398 1.2666 0 0.52051-0.19385 1.1045-0.58398 1.7529-1.2998 1.8184-3.2139 3.457-5.7456 4.918-2.5322 1.4609-5.293 2.1914-8.2783 2.1914-5.3906 0-10.017-2.0283-13.879-6.0879-3.8643-4.0566-5.7949-9.0078-5.7949-14.852 0-6.8184 1.834-12.207 5.5029-16.168 3.667-3.96 8.2622-5.9399 13.781-5.9399z"/>
	<path d="m788.83 182.6c-2.0127 0-3.669 0.53613-4.9668 1.6079-1.2988 1.0713-1.9478 2.6143-1.9478 4.626v21.914c0 1.7539 0.94043 3.2314 2.8237 4.4316 1.8828 1.2022 3.9277 1.8008 6.1357 1.8008 3.831 0 6.8823-1.7188 9.1548-5.1621 2.2734-3.4394 3.4092-7.3027 3.4092-11.588 0-5.4551-1.4453-9.7559-4.333-12.906-2.8906-3.1489-6.3154-4.7241-10.276-4.7241zm3.1162-4.771c6.2339 0 11.104 2.0933 14.61 6.2812s5.2588 8.6528 5.2588 13.391c0 6.2344-2.1758 11.722-6.5244 16.461-4.3516 4.7402-9.2861 7.1094-14.804 7.1094-0.97412 0-1.8359-0.0332-2.581-0.09766-0.74707-0.06641-1.4121-0.17969-1.9971-0.34082-0.58398-0.16309-1.0391-0.30957-1.3628-0.43848-0.3252-0.12988-0.74707-0.30762-1.2671-0.53516-0.51904-0.22656-0.84326-0.37305-0.97314-0.43848-0.25977 0.3252-0.38965 0.74707-0.38965 1.2646v8.377c0 3.7637 0.25879 6.6553 0.77881 8.668 0.12988 0.45313 0.97412 0.8916 2.5327 1.3154 1.5581 0.4209 2.6621 0.63281 3.311 0.63281 0.19434 0 0.32422 0.4043 0.39014 1.2178 0.06299 0.81055 0.03223 1.3457-0.09814 1.6064-6.4927-0.3252-9.9678-0.48828-10.421-0.48828-0.38916 0-3.9292 0.16309-10.616 0.48828-0.26025-0.26074-0.39014-0.7959-0.39014-1.6064 0-0.81348 0.12988-1.2178 0.39014-1.2178 0.77881 0 1.9316-0.21191 3.458-0.63281 1.5239-0.42383 2.3525-0.8623 2.4829-1.3154 0.45361-1.8838 0.68164-4.1562 0.68164-6.8174v-40.224c0-2.5322-0.45459-4.2852-1.3628-5.2593-0.65088-0.77881-1.4473-1.314-2.3872-1.6069-0.94092-0.29199-1.7207-0.43799-2.3369-0.43799-0.61768 0-0.92578-0.06396-0.92578-0.19482 0-1.5581 0.1958-2.3691 0.58496-2.4351 6.8809-1.0381 11.362-1.8828 13.441-2.5322 0.06299 0 0.22607-0.03174 0.48633-0.09766 0.19482 0 0.2915 0.17969 0.2915 0.53564 0 0.3584-0.03271 0.79639-0.09668 1.3154-0.06494 0.51953-0.09717 0.81152-0.09717 0.87695v0.58398c0.9082-0.64941 2.418-1.3789 4.5283-2.1924 2.1089-0.80955 3.9106-1.2158 5.4048-1.2158z"/>
	<path d="m827.15 214.01c1.1035 0.94238 2.5322 1.4121 4.2842 1.4121 1.7539 0 3.4424-0.53516 5.0654-1.6064 1.623-1.0723 2.4346-2.1582 2.4346-3.2627v-10.031c-0.51953 0.25879-1.7871 0.71387-3.7978 1.3633-2.0127 0.64941-3.5879 1.2178-4.7236 1.7041-1.1377 0.48633-2.2402 1.2998-3.3125 2.4336-1.0703 1.1387-1.6055 2.4531-1.6055 3.9463 0 1.7529 0.55078 3.1006 1.6553 4.041zm9.1553-36.181c3.5703 0 6.1348 0.86084 7.6943 2.5801 1.5576 1.7207 2.3369 4.4971 2.3369 8.3272v22.498c0 1.3643 0.35645 2.5 1.0713 3.4102 0.71387 0.90918 1.6875 1.3633 2.9219 1.3633 0.9082 0 2.0449-0.4541 3.4092-1.3633 0.25879 0 0.38965 0.25977 0.38965 0.77832 0 0.84473-0.16309 1.5264-0.4873 2.0459-2.6641 2.2734-4.9356 3.4082-6.8174 3.4082-1.4941 0-2.9219-0.61621-4.2852-1.8496-1.3643-1.2344-2.3066-2.5332-2.8252-3.8965-0.06641 0-0.30859 0.21191-0.73047 0.63379-0.42383 0.42285-0.99023 0.90918-1.7041 1.46-0.71582 0.55273-1.543 1.1201-2.4834 1.7051-0.94238 0.58398-2.0449 1.0703-3.3125 1.4609-1.2646 0.38867-2.5488 0.58398-3.8457 0.58398-2.9873 0-5.4541-0.79395-7.4033-2.3857-1.9463-1.5908-2.9219-3.9775-2.9219-7.1582 0-1.4287 0.35742-2.7764 1.0732-4.042 0.71289-1.2676 1.5576-2.3047 2.5322-3.1172 0.97363-0.81055 2.3037-1.6387 3.9922-2.4844 1.6885-0.8418 3.1318-1.4746 4.334-1.8984 1.2012-0.4209 2.7754-0.95703 4.7236-1.6074 1.9482-0.64746 3.3115-1.1348 4.0908-1.4609 0.58398-0.19531 0.87598-0.68066 0.87598-1.4609v-7.3047c0-2.0772-0.64941-3.6831-1.9482-4.8198-1.2998-1.1362-2.8564-1.7051-4.6748-1.7051-1.9473 0-3.5703 0.66699-4.8701 1.9971-1.2988 1.331-1.9463 3.0669-1.9463 5.21 0 2.273-1.332 3.4087-3.9932 3.4087-1.8184 0-3.085-0.61572-3.7988-1.8511 0-2.791 2.0459-5.5659 6.1357-8.3267 4.0908-2.7583 8.2451-4.1382 12.467-4.1382z"/>
	<path d="m883.54 177.73c3.8301 0 6.3623 0.94141 7.5967 2.8242 0 2.2739-0.35742 3.9292-1.0723 4.9668-0.71387 1.04-1.5908 1.5591-2.6289 1.5591-1.169 0-2.2402-0.55078-3.2139-1.6567-0.97363-1.102-2.3057-1.6553-3.9941-1.6553-2.0117 0-3.7656 0.94189-5.2578 2.8242-1.4941 1.8838-2.2412 3.8648-2.2412 5.9414v14.609c0 3.7656 0.25977 6.6562 0.78027 8.668 0.12891 0.45508 0.98926 0.89258 2.581 1.3144 1.5898 0.42383 2.71 0.63379 3.3594 0.63379 0.19531 0 0.32324 0.38867 0.38965 1.169 0.06348 0.7793 0.03223 1.331-0.09668 1.6543-6.4941-0.32324-10-0.48535-10.519-0.48535-0.38965 0-3.9297 0.16211-10.617 0.48535-0.25879-0.25977-0.38867-0.79297-0.38867-1.6055s0.12988-1.2178 0.38867-1.2178c0.78027 0 1.9316-0.20996 3.457-0.63379 1.5264-0.42188 2.3545-0.85938 2.4854-1.3144 0.45313-1.8818 0.68066-4.1543 0.68066-6.8184v-18.408c0-2.5317-0.45508-4.2847-1.3633-5.2578-0.64941-0.77979-1.4453-1.3159-2.3867-1.6079s-1.7197-0.43799-2.3359-0.43799c-0.61914 0-0.92578-0.06396-0.92578-0.19531 0-1.5576 0.19531-2.3686 0.58398-2.4336 6.8818-1.0381 11.362-1.8833 13.44-2.5322 0.06445 0 0.22656-0.0332 0.48633-0.09814 0.25977 0 0.42188 0.27734 0.48828 0.82813 0.06348 0.55225 0.06348 0.95801 0 1.2173l-0.58496 4.8696c1.169-1.7529 2.7764-3.3931 4.8213-4.919 2.0449-1.524 4.0723-2.2881 6.0869-2.2881z"/>
	<path d="m900.86 183.87h-5.6475c-0.3252 0-0.4873-0.68213-0.4873-2.0459 0-0.38916 0.03223-0.61621 0.09766-0.68213 1.8828-0.84326 3.9277-2.563 6.1357-5.1611 0.71387-0.84375 1.4121-1.8018 2.0938-2.873 0.68066-1.0708 1.25-1.9966 1.7051-2.7759 0.45313-0.77979 0.68066-1.2012 0.68066-1.2661 1.9482 0 2.9219 0.16309 2.9219 0.48633v9.6431c1.6885 0 4.2529 0.0166 7.6943 0.04883 3.4414 0.03271 5.2588 0.04785 5.4541 0.04785 0.51953 0 0.7793 0.29297 0.7793 0.87695 0 1.168-0.3252 2.4033-0.97461 3.7012h-12.953v23.862c0 2.5967 0.66602 4.6748 1.9961 6.2334 1.3301 1.5576 3.0693 2.3369 5.2109 2.3369 1.9482 0 3.959-0.61621 6.0381-1.8506 0.19531-0.12891 0.48828 0.14648 0.87695 0.82813 0.39063 0.68164 0.55176 1.0547 0.4873 1.1201-0.97363 1.0391-2.4678 2.0615-4.4795 3.0674-2.0137 1.0059-4.0918 1.5098-6.2334 1.5098-3.2471 0-5.958-1.0723-8.1328-3.2139-2.1758-2.1436-3.2637-5.1943-3.2637-9.1553v-24.738h-1e-5z"/>
	<path d="m955.52 177.63c2.5947 0 4.7539 0.69873 6.4766 2.0938 1.7197 1.398 2.9043 3.0039 3.5547 4.8213 4.8701-4.6094 9.8994-6.915 15.096-6.915 8.1816 0 12.271 6.2339 12.271 18.7v10.811c0 3.7656 0.25879 6.6562 0.77832 8.668 0.13086 0.45508 0.97461 0.89258 2.5332 1.3144 1.5586 0.42383 2.6621 0.63379 3.3115 0.63379 0.19336 0 0.32324 0.38867 0.38965 1.169 0.06348 0.7793 0.03223 1.331-0.09766 1.6543-6.4932-0.32324-9.9688-0.48535-10.421-0.48535-0.38965 0-3.9307 0.16211-10.616 0.48535-0.25977-0.25977-0.39063-0.79297-0.39063-1.6055s0.13086-1.2178 0.39063-1.2178c0.7793 0 1.9316-0.20996 3.458-0.63379 1.5234-0.42188 2.3516-0.85938 2.4824-1.3144 0.45313-1.8818 0.68262-3.959 0.68262-6.2324v-11.006c0-9.9985-3.2793-14.999-9.8369-14.999-2.4023 0-4.4795 0.69775-6.2334 2.0928-1.7529 1.397-2.6289 2.5493-2.6289 3.458l0.0957 0.38916v0.48682c0.25977 1.624 0.39063 3.9624 0.39063 7.0132v11.006c0 3.1816 0.25879 5.7793 0.77832 7.791 0.12988 0.45508 0.97559 0.89258 2.5332 1.3144 1.5576 0.42383 2.6621 0.63379 3.3115 0.63379 0.19434 0 0.32324 0.38867 0.38965 1.169 0.06348 0.7793 0.03223 1.331-0.09766 1.6543-6.4932-0.32324-9.9688-0.48535-10.421-0.48535-0.38965 0-3.9287 0.16211-10.616 0.48535-0.25977-0.25977-0.38965-0.79297-0.38965-1.6055s0.12988-1.2178 0.38965-1.2178c0.77832 0 1.9316-0.20996 3.458-0.63379 1.5234-0.42188 2.3525-0.85938 2.4824-1.3144 0.4541-1.8818 0.68262-4.1543 0.68262-6.8184v-9.9326c0-10.325-3.1162-15.486-9.3506-15.486-1.9473 0-3.9121 0.72998-5.8916 2.1909-1.9824 1.4609-2.9697 2.873-2.9697 4.2358v17.142c0 3.7656 0.25781 6.6562 0.77734 8.668 0.12988 0.45508 0.97559 0.89258 2.5332 1.3144 1.5586 0.42383 2.6621 0.63379 3.3106 0.63379 0.19629 0 0.32422 0.38867 0.39063 1.169 0.06348 0.7793 0.03223 1.331-0.09766 1.6543-6.4932-0.32324-9.9678-0.48535-10.422-0.48535-0.38867 0-3.9277 0.16211-10.614 0.48535-0.26172-0.25977-0.39063-0.79297-0.39063-1.6055s0.12891-1.2178 0.39063-1.2178c0.77734 0 1.9307-0.20996 3.457-0.63379 1.5244-0.42188 2.3525-0.85938 2.4834-1.3144 0.4541-1.8818 0.68164-4.1543 0.68164-6.8184v-18.408c0-2.5317-0.45508-4.2847-1.3633-5.2578-0.65039-0.77979-1.4453-1.3159-2.3857-1.6079-0.94238-0.29199-1.7227-0.43799-2.3389-0.43799-0.61719 0-0.9248-0.06396-0.9248-0.19531 0-1.5576 0.19531-2.3686 0.58398-2.4336 6.8828-1.0381 11.362-1.8833 13.441-2.5322 0.0625 0 0.22559-0.0332 0.4873-0.09814 0.25781 0 0.4209 0.27734 0.48535 0.82813 0.06543 0.55225 0.06543 0.95801 0 1.2173-0.25879 1.8179-0.38867 3.1167-0.38867 3.8955 0 0.26025 0.06348 0.38916 0.19531 0.38916 0.06348 0 0.16113-0.06299 0.29199-0.19385 1.4922-1.5591 3.5215-3.0342 6.0869-4.4321 2.5645-1.3951 5.0157-2.0938 7.3536-2.0938z"/>
	<path d="m1019.7 181.43c-3.376 0-5.957 1.4448-7.7412 4.334-1.7871 2.8901-2.6787 5.2759-2.6787 7.1582 0 0.45605 0.19531 0.68164 0.58398 0.68164h18.992c0.32422 0 0.4873-0.32324 0.4873-0.97363 0-2.0781-0.87695-4.4644-2.6299-7.1592-1.7529-2.6929-4.0918-4.041-7.0137-4.041zm0.97558-3.603c2.9844 0 5.6152 0.56787 7.8887 1.7041 2.2715 1.1357 4.0068 2.5967 5.21 4.3828 1.2012 1.7861 2.0772 3.603 2.6299 5.4541 0.5498 1.8491 0.82813 3.6851 0.82813 5.5024 0 1.2988-0.19629 2.0947-0.58496 2.3867s-1.1367 0.4375-2.2402 0.4375h-24.543c-0.51953 0-0.77832 0.16211-0.77832 0.4873 0 4.0908 1.2324 7.8564 3.6992 11.297 2.4678 3.4434 6.0391 5.1631 10.714 5.1631 1.3643 0 2.6611-0.12988 3.8965-0.39063 1.2324-0.25781 2.2891-0.56738 3.165-0.92578 0.87695-0.35449 1.6221-0.71289 2.2402-1.0703 0.61621-0.35547 1.1514-0.69629 1.6064-1.0234l0.68262-0.48633c0.38965 0 0.58398 0.42383 0.58398 1.2666 0 0.52051-0.19434 1.1045-0.58398 1.7529-1.2998 1.8184-3.2139 3.457-5.7461 4.918s-5.293 2.1914-8.2783 2.1914c-5.3906 0-10.017-2.0283-13.879-6.0879-3.8652-4.0566-5.7949-9.0078-5.7949-14.852 0-6.8184 1.834-12.207 5.5029-16.168 3.667-3.96 8.2607-5.9399 13.781-5.9399z"/>
	<path d="m1068.8 177.63c4.5498 0 7.7295 1.624 9.5498 4.8696 1.8203 3.248 2.7305 8.5064 2.7305 15.778v8.8633c0 3.7656 0.25 6.6562 0.76953 8.668 0.12988 0.45508 0.98047 0.89258 2.54 1.3144 1.5606 0.42383 2.6602 0.63379 3.3106 0.63379 0.18945 0 0.31934 0.38867 0.38965 1.169 0.05957 0.7793 0.03027 1.331-0.10059 1.6543-6.4893-0.32324-9.9697-0.48535-10.42-0.48535-0.12988 0-3.5391 0.16211-10.229 0.48535-0.25977-0.25977-0.38965-0.79297-0.38965-1.6055s0.12988-1.2178 0.38965-1.2178c0.78027 0 1.8701-0.20996 3.2695-0.63379 1.3906-0.42188 2.1504-0.85938 2.2803-1.3144 0.45996-1.8818 0.69043-4.1543 0.69043-6.8184v-9.7383c0-6.0381-0.78027-10.161-2.3408-12.37-1.5596-2.206-4.0898-3.3101-7.5977-3.3101-2.0781 0-4.0762 0.7627-5.9902 2.2881-1.916 1.5259-2.873 2.9067-2.873 4.1387v17.142c0 3.7656 0.25977 6.6562 0.78027 8.668 0.12891 0.45508 0.97266 0.89258 2.5322 1.3144 1.5576 0.42383 2.6611 0.63379 3.3106 0.63379 0.19531 0 0.3252 0.38867 0.39063 1.169 0.06348 0.7793 0.03027 1.331-0.09863 1.6543-6.4932-0.32324-9.9668-0.48535-10.421-0.48535-0.38867 0-3.9287 0.16211-10.616 0.48535-0.25879-0.25977-0.38867-0.79297-0.38867-1.6055s0.12988-1.2178 0.38867-1.2178c0.78027 0 1.9326-0.20996 3.458-0.63379 1.5254-0.42188 2.3535-0.85938 2.4844-1.3144 0.45313-1.8818 0.68066-4.1543 0.68066-6.8184v-18.408c0-2.5317-0.4541-4.2847-1.3623-5.2578-0.65039-0.77979-1.4463-1.3159-2.3877-1.6079-0.94043-0.29199-1.7197-0.43799-2.3369-0.43799s-0.9248-0.06396-0.9248-0.19531c0-1.5576 0.19531-2.3686 0.58496-2.4336 6.8799-1.0381 11.361-1.8833 13.439-2.5322 0.06445 0 0.22754-0.0332 0.48633-0.09814 0.25977 0 0.42188 0.27734 0.48828 0.82813 0.06348 0.55225 0.06348 0.95801 0 1.2173-0.26074 1.8179-0.38965 3.1167-0.38965 3.8955 0 0.26025 0.0625 0.38916 0.19336 0.38916 0.06543 0 0.16113-0.06299 0.29199-0.19385 1.4941-1.5591 3.5225-3.0342 6.0889-4.4321 2.5635-1.3951 5.0185-2.0938 7.3486-2.0938z"/>
	<path d="m1094.4 183.87h-5.6504c-0.31934 0-0.49023-0.68213-0.49023-2.0459 0-0.38916 0.04102-0.61621 0.10059-0.68213 1.8799-0.84326 3.9297-2.563 6.1396-5.1611 0.70996-0.84375 1.4102-1.8018 2.0898-2.873 0.68066-1.0708 1.25-1.9966 1.7109-2.7759 0.44922-0.77979 0.67969-1.2012 0.67969-1.2661 1.9394 0 2.9199 0.16309 2.9199 0.48633v9.6431c1.6894 0 4.25 0.0166 7.6894 0.04883 3.4404 0.03271 5.2607 0.04785 5.46 0.04785 0.52051 0 0.78027 0.29297 0.78027 0.87695 0 1.168-0.33008 2.4033-0.97949 3.7012h-12.95v23.862c0 2.5967 0.66016 4.6748 2 6.2334 1.3301 1.5576 3.0596 2.3369 5.21 2.3369 1.9404 0 3.9502-0.61621 6.0303-1.8506 0.19922-0.12891 0.48926 0.14648 0.87988 0.82813 0.38965 0.68164 0.5498 1.0547 0.48926 1.1201-0.97949 1.0391-2.4697 2.0615-4.4795 3.0674-2.0205 1.0059-4.0898 1.5098-6.2402 1.5098-3.2402 0-5.9502-1.0723-8.1299-3.2139-2.1699-2.1436-3.2598-5.1943-3.2598-9.1553v-24.738z"/>
	<path d="m1158.9 181.92c-3.2402 0-6.2002 2.5493-8.8604 7.646-2.6602 5.0977-3.9902 10.211-3.9902 15.34 0 3.7656 0.60059 6.6885 1.7998 8.7656 1.2002 2.0781 2.71 3.1172 4.5303 3.1172 3.2402 0 6.1201-2.5488 8.6201-7.6455s3.75-10.241 3.75-15.437c0-3.8315-0.51953-6.7534-1.5606-8.7666-1.0391-2.0117-2.4697-3.02-4.2891-3.02zm1.1699-3.9927c3.8301 0 6.7998 1.332 8.9102 3.9927 2.1094 2.6641 3.1699 6.332 3.1699 11.006 0 6.6885-2.3604 13.003-7.0606 18.942-4.71 5.9424-9.5303 8.9121-14.46 8.9121-3.8994 0-6.8701-1.2656-8.9199-3.7988-2.04-2.5312-3.0596-6.1348-3.0596-10.811 0-6.752 2.3301-13.148 7.0098-19.186 4.6699-6.0381 9.4805-9.0581 14.41-9.0581z"/>
	<path d="m1208.6 152.21c4.1602 0 6.8193 1.1055 7.9893 3.3115 0 4.2217-1.1699 6.331-3.5098 6.331-0.90918 0-1.7695-0.4873-2.5801-1.4609-0.80957-0.97461-1.6494-1.9629-2.5303-2.9707-0.87891-1.0059-1.8291-1.5098-2.8691-1.5098-2.0801 0-4.29 2.1279-6.6309 6.3789-2.3291 4.2539-4.1494 10.178-5.4492 17.775v0.19482c0 0.25977 0.09961 0.39014 0.29004 0.39014h11.2c0.33008 0 0.48926 0.38965 0.48926 1.168 0 1.04-0.35938 2.1426-1.0693 3.311h-11.4c-0.32031 0-0.51953 0.26074-0.58008 0.77979l-5.3604 29.121c-1.5596 9.0244-4.2998 15.906-8.2295 20.647-3.9297 4.7393-8.2002 7.1104-12.8 7.1104-2.2803 0-4.0606-0.40625-5.3604-1.2188-1.2998-0.81152-2.1396-1.7363-2.5303-2.7744-0.06934-1.4941 0.29004-2.8242 1.0703-3.9932s1.75-1.7529 2.9199-1.7529c0.58008 0 1.1396 0.30566 1.6504 0.9248 0.5293 0.61621 0.97949 1.2969 1.3701 2.0449 0.38965 0.74609 0.95996 1.4277 1.6992 2.0449 0.75 0.61719 1.5801 0.92578 2.4902 0.92578 1.2305 0 2.46-0.76367 3.7002-2.2891 1.2295-1.5254 2.29-3.4414 3.1602-5.7461 0.87988-2.3047 1.6201-4.4961 2.2393-6.5732 0.62109-2.0791 1.0606-3.9307 1.3203-5.5518l5.8398-33.018v-0.19385c0-0.3252-0.09961-0.48779-0.29004-0.48779h-6.3291c-0.13086 0-0.2002-0.09619-0.2002-0.29199 0-0.58398 0.51953-1.4272 1.5596-2.5322 1.04-1.103 2.0801-1.6548 3.1201-1.6548h2.8203c0.25977 0 0.45996-0.29199 0.58984-0.87695 1.2998-7.9863 4.0898-14.575 8.3701-19.771 4.29-5.1943 8.8994-7.792 13.83-7.792z"/>
	<path d="m1246.7 168.18v38.567c0 2.7275 0.49023 5.1953 1.4697 7.4023 0.25 0.65039 1.9902 1.1367 5.21 1.4609 3.21 0.32617 5.6904 0.48828 7.4502 0.48828 14.93 0 22.399-9.6426 22.399-28.927 0-7.4019-1.9697-13.699-5.8994-18.894-3.9199-5.1948-9.6504-7.7925-17.181-7.7925h-0.48926c-7.0107 0-10.91 0.52051-11.69 1.5586-0.83985 1.169-1.2695 3.2139-1.2695 6.1358zm-4.2803-11.784c2.4697 0 5.5996-0.03223 9.4004-0.09766 3.7998-0.06348 6.3096-0.09766 7.5498-0.09766 10.58 0 18.82 3.1177 24.73 9.3496 5.9092 6.2339 8.8691 13.571 8.8691 22.012 0 9.4155-2.9902 17.272-8.96 23.569-5.9795 6.2988-14.22 9.4463-24.74 9.4463-0.7793 0-3.0996-0.06445-6.9697-0.19336-3.8594-0.12988-7.0898-0.16113-9.6894-0.09766l-11.78 0.29102c-0.2002-0.19336-0.29004-0.68164-0.29004-1.4609 0-0.90723 0.08984-1.3623 0.29004-1.3623 0.83984 0 2.0898-0.22754 3.75-0.68262 1.6602-0.45313 2.6396-0.97266 2.9697-1.5576 0.4502-0.78027 0.67969-3.831 0.67969-9.1553v-36.815c0-3.8301-0.22949-6.6221-0.67969-8.375-0.18945-0.51953-1.1504-1.0059-2.8701-1.4609-1.7197-0.4541-3.0098-0.68164-3.8496-0.68164-0.25977 0-0.38965-0.38965-0.38965-1.169 0-0.84375 0.12988-1.3955 0.38965-1.6562 3.3701 0.13087 7.2402 0.19532 11.59 0.19532z"/>
	<path d="m1316.9 181.43c-3.3799 0-5.96 1.4448-7.75 4.334-1.7803 2.8901-2.6699 5.2759-2.6699 7.1582 0 0.45605 0.18945 0.68164 0.58008 0.68164h18.989c0.33105 0 0.49023-0.32324 0.49023-0.97363 0-2.0781-0.87988-4.4644-2.6299-7.1592-1.75-2.6929-4.0898-4.041-7.0098-4.041zm0.96973-3.603c2.9902 0 5.6201 0.56787 7.8896 1.7041 2.2705 1.1357 4.0107 2.5967 5.2109 4.3828 1.1992 1.7861 2.0801 3.603 2.6299 5.4541 0.5498 1.8491 0.8291 3.6851 0.8291 5.5024 0 1.2988-0.19922 2.0947-0.58984 2.3867-0.38965 0.29199-1.1299 0.4375-2.2393 0.4375h-24.54c-0.52051 0-0.78027 0.16211-0.78027 0.4873 0 4.0908 1.2295 7.8564 3.7002 11.297 2.4697 3.4434 6.04 5.1631 10.72 5.1631 1.3604 0 2.6602-0.12988 3.8896-0.39063 1.2305-0.25781 2.291-0.56738 3.1699-0.92578 0.87109-0.35449 1.6211-0.71289 2.2402-1.0703 0.61035-0.35547 1.1504-0.69629 1.6006-1.0234l0.68945-0.48633c0.38965 0 0.58008 0.42383 0.58008 1.2666 0 0.52051-0.19043 1.1045-0.58008 1.7529-1.2998 1.8184-3.2197 3.457-5.75 4.918s-5.29 2.1914-8.2803 2.1914c-5.3896 0-10.02-2.0283-13.879-6.0879-3.8604-4.0566-5.791-9.0078-5.791-14.852 0-6.8184 1.8301-12.207 5.5-16.168 3.6699-3.96 8.2607-5.9399 13.78-5.9399z"/>
	<path d="m1363.5 152.6c4.6807 0 7.7607 1.2666 9.2607 3.7983 0 4.0898-1.1699 6.1357-3.5107 6.1357-0.83984 0-1.6494-0.50195-2.4297-1.5098-0.7793-1.0059-1.6797-2.0283-2.6797-3.0684-1.0098-1.0371-2.2305-1.5576-3.6602-1.5576-2.8496 0-5.0606 1.7529-6.6201 5.2588-1.5596 3.5073-2.3398 7.6314-2.3398 12.37v4.9668c0 0.32617 0.16992 0.4873 0.49023 0.4873h10.81c0.33008 0 0.49023 0.22754 0.49023 0.68164 0 1.0391-0.39063 2.3369-1.1699 3.895h-10.03c-0.38965 0-0.58984 0.19531-0.58984 0.58496v22.498c0 3.5059 0.2998 6.3965 0.87988 8.668 0.12988 0.45508 0.92969 0.89258 2.3906 1.3144 1.459 0.42383 2.4795 0.63379 3.0693 0.63379 0.19043 0 0.32031 0.38867 0.38965 1.169 0.06055 0.7793 0.03027 1.331-0.09961 1.6543-6.5-0.32324-9.9697-0.48535-10.42-0.48535-0.2002 0-3.6094 0.16211-10.23 0.48535-0.12891-0.13086-0.22949-0.4375-0.28906-0.92383-0.07031-0.4873-0.07031-0.92676 0-1.3154 0.05957-0.38965 0.16016-0.58398 0.28906-0.58398 0.78027 0 1.8809-0.20996 3.3106-0.63379 1.4297-0.42188 2.21-0.85938 2.3398-1.3144 0.65039-2.5332 0.9707-5.4199 0.9707-8.668v-22.401c0-0.45313-0.16016-0.68213-0.48047-0.68213h-5.1699c-0.19043 0-0.29004-0.19385-0.29004-0.58398 0-0.58496 0.51953-1.395 1.5596-2.4341s2.1406-1.5586 3.3106-1.5586h0.58984c0.32031 0 0.48047-0.19531 0.48047-0.58398v-1.2671c0-6.8169 2.0293-12.693 6.0898-17.628 4.0596-4.9336 8.4893-7.4019 13.289-7.4019z"/>
	<path d="m1383.8 181.43c-3.3701 0-5.9502 1.4448-7.7402 4.334-1.79 2.8901-2.6797 5.2759-2.6797 7.1582 0 0.45605 0.2002 0.68164 0.58984 0.68164h18.99c0.32031 0 0.49023-0.32324 0.49023-0.97363 0-2.0781-0.88086-4.4644-2.6309-7.1592-1.7598-2.6929-4.0996-4.041-7.0195-4.041zm0.98046-3.603c2.9795 0 5.6094 0.56787 7.8896 1.7041 2.2695 1.1357 4 2.5967 5.21 4.3828 1.2002 1.7861 2.0703 3.603 2.6299 5.4541 0.5498 1.8491 0.82031 3.6851 0.82031 5.5024 0 1.2988-0.19043 2.0947-0.58008 2.3867s-1.1396 0.4375-2.2402 0.4375h-24.54c-0.51953 0-0.78027 0.16211-0.78027 0.4873 0 4.0908 1.2305 7.8564 3.7002 11.297 2.46 3.4434 6.04 5.1631 10.71 5.1631 1.3604 0 2.6602-0.12988 3.9004-0.39063 1.2295-0.25781 2.29-0.56738 3.1592-0.92578 0.88086-0.35449 1.6211-0.71289 2.2402-1.0703 0.62012-0.35547 1.1504-0.69629 1.6104-1.0234l0.67969-0.48633c0.39063 0 0.59082 0.42383 0.59082 1.2666 0 0.52051-0.2002 1.1045-0.59082 1.7529-1.2998 1.8184-3.21 3.457-5.7393 4.918-2.541 1.4609-5.3008 2.1914-8.2803 2.1914-5.3896 0-10.021-2.0283-13.88-6.0879-3.8701-4.0566-5.8008-9.0078-5.8008-14.852 0-6.8184 1.8408-12.207 5.5107-16.168 3.6592-3.96 8.2598-5.9399 13.78-5.9399z"/>
	<path d="m1433 177.63c4.5498 0 7.7295 1.624 9.5498 4.8696 1.8193 3.248 2.7295 8.5064 2.7295 15.778v8.8633c0 3.7656 0.25 6.6562 0.77051 8.668 0.12988 0.45508 0.97949 0.89258 2.54 1.3144 1.5596 0.42383 2.6602 0.63379 3.3096 0.63379 0.19043 0 0.32031 0.38867 0.38965 1.169 0.06055 0.7793 0.03027 1.331-0.09961 1.6543-6.4902-0.32324-9.9697-0.48535-10.42-0.48535-0.12988 0-3.54 0.16211-10.23 0.48535-0.25977-0.25977-0.38965-0.79297-0.38965-1.6055s0.12988-1.2178 0.38965-1.2178c0.78027 0 1.8711-0.20996 3.2705-0.63379 1.3896-0.42188 2.1494-0.85938 2.2803-1.3144 0.45996-1.8818 0.68945-4.1543 0.68945-6.8184v-9.7383c0-6.0381-0.7793-10.161-2.3398-12.37-1.5596-2.206-4.0898-3.3101-7.5996-3.3101-2.0801 0-4.0703 0.7627-5.9902 2.2881-1.9102 1.5259-2.8701 2.9067-2.8701 4.1387v17.142c0 3.7656 0.25977 6.6562 0.78027 8.668 0.12988 0.45508 0.96973 0.89258 2.5293 1.3144 1.5606 0.42383 2.6602 0.63379 3.3106 0.63379 0.2002 0 0.33008 0.38867 0.38965 1.169 0.07031 0.7793 0.03027 1.331-0.09961 1.6543-6.4902-0.32324-9.96-0.48535-10.42-0.48535-0.38965 0-3.9307 0.16211-10.61 0.48535-0.25977-0.25977-0.38965-0.79297-0.38965-1.6055s0.12988-1.2178 0.38965-1.2178c0.78027 0 1.9297-0.20996 3.46-0.63379 1.5205-0.42188 2.3506-0.85938 2.4805-1.3144 0.4502-1.8818 0.67969-4.1543 0.67969-6.8184v-18.408c0-2.5317-0.4502-4.2847-1.3604-5.2578-0.64941-0.77979-1.4492-1.3159-2.3896-1.6079s-1.7197-0.43799-2.3398-0.43799c-0.61035 0-0.91992-0.06396-0.91992-0.19531 0-1.5576 0.18945-2.3686 0.58008-2.4336 6.8799-1.0381 11.36-1.8833 13.439-2.5322 0.07031 0 0.23047-0.0332 0.49023-0.09814 0.25977 0 0.41992 0.27734 0.49023 0.82813 0.05957 0.55225 0.05957 0.95801 0 1.2173-0.26074 1.8179-0.39063 3.1167-0.39063 3.8955 0 0.26025 0.06055 0.38916 0.19043 0.38916 0.07031 0 0.16016-0.06299 0.29004-0.19385 1.5-1.5591 3.5303-3.0342 6.0898-4.4321 2.5703-1.3951 5.0205-2.0938 7.3506-2.0938z"/>
	<path d="m1471.3 177.73c1.4199 0 3.2197 0.18018 5.3994 0.53516 2.1807 0.35791 3.6904 0.60205 4.5303 0.73096 0.65039 2.9873 1.04 6.2978 1.1699 9.9341 0 0.3252-0.41992 0.48682-1.2695 0.48682-0.91016 0-1.3906-0.22656-1.4609-0.68164-0.31934-1.8174-1.25-3.5381-2.7695-5.1611-1.5293-1.623-3.2695-2.436-5.2197-2.436-4.6699 0-7.0107 1.916-7.0107 5.7461 0 0.9751 0.13086 1.8359 0.39063 2.581 0.25977 0.74658 0.75977 1.4609 1.5098 2.1431 0.75 0.68164 1.3203 1.1694 1.71 1.4604 0.38965 0.29297 1.25 0.81348 2.5801 1.5586 1.3301 0.74805 2.1504 1.2188 2.4805 1.4121 0.25977 0.13086 1.0195 0.57031 2.29 1.3144 1.2695 0.74902 2.1602 1.2842 2.6797 1.6074 0.51953 0.32617 1.2803 0.87793 2.29 1.6562 1 0.77832 1.7295 1.4785 2.1894 2.0938 0.4502 0.61719 0.89063 1.3965 1.3106 2.3379s0.63965 1.8984 0.63965 2.873c0 3.832-1.5 7.0293-4.4795 9.5938-2.9902 2.5644-6.5 3.8457-10.521 3.8457-1.3701 0-2.6191-0.08203-3.75-0.24219-1.1396-0.16406-2.4902-0.43848-4.04-0.82813-1.5596-0.39063-2.7598-0.64844-3.6094-0.7793-0.39063-1.0381-0.76074-2.6611-1.1201-4.8691-0.36035-2.207-0.53027-3.96-0.53027-5.2598 0.52051-0.39063 0.91016-0.58398 1.1699-0.58398 0.96973 0 1.4902 0.19336 1.5498 0.58398 0.39063 1.9473 1.6104 3.8467 3.6602 5.6973 2.04 1.8506 4.2598 2.7754 6.6699 2.7754 2.0703 0 3.7803-0.56836 5.1104-1.7051 1.3301-1.1338 2-2.7754 2-4.918 0-1.1025-0.20996-2.125-0.63965-3.0664-0.41992-0.94043-1.1006-1.7852-2.041-2.5322-0.93945-0.74609-1.8193-1.3643-2.6299-1.8506-0.80957-0.48828-1.9697-1.1211-3.46-1.8994-1.4893-0.78027-2.5996-1.3955-3.3096-1.8506-5.0596-2.9219-7.6006-6.3945-7.6006-10.421 0-3.5064 1.4209-6.3623 4.2402-8.5703 2.8203-2.208 6.1201-3.312 9.8906-3.312z"/>
	<path d="m1508.2 181.43c-3.3701 0-5.9502 1.4448-7.7402 4.334-1.7793 2.8901-2.6797 5.2759-2.6797 7.1582 0 0.45605 0.2002 0.68164 0.58984 0.68164h18.99c0.32031 0 0.49023-0.32324 0.49023-0.97363 0-2.0781-0.88086-4.4644-2.6309-7.1592-1.7598-2.6929-4.0898-4.041-7.0195-4.041zm0.98047-3.603c2.9795 0 5.6094 0.56787 7.8896 1.7041 2.2705 1.1357 4.0098 2.5967 5.21 4.3828s2.0703 3.603 2.6299 5.4541c0.5498 1.8491 0.83008 3.6851 0.83008 5.5024 0 1.2988-0.2002 2.0947-0.58984 2.3867s-1.1396 0.4375-2.2402 0.4375h-24.54c-0.51953 0-0.7793 0.16211-0.7793 0.4873 0 4.0908 1.2295 7.8564 3.6992 11.297 2.4707 3.4434 6.04 5.1631 10.71 5.1631 1.3701 0 2.6602-0.12988 3.9004-0.39063 1.2295-0.25781 2.29-0.56738 3.1602-0.92578 0.87988-0.35449 1.6299-0.71289 2.2393-1.0703 0.62109-0.35547 1.1602-0.69629 1.6104-1.0234l0.68066-0.48633c0.38965 0 0.58984 0.42383 0.58984 1.2666 0 0.52051-0.2002 1.1045-0.58984 1.7529-1.3008 1.8184-3.2109 3.457-5.7402 4.918-2.54 1.4609-5.3008 2.1914-8.2803 2.1914-5.3896 0-10.021-2.0283-13.88-6.0879-3.8604-4.0566-5.79-9.0078-5.79-14.852 0-6.8184 1.8301-12.207 5.5-16.168 3.6601-3.96 8.2598-5.9399 13.78-5.9399z"/>
</g>
<g fill="#ADADAD">
	<polygon points="204.9 257.28 208.87 257.28 208.87 247.08 204.9 247.08"/>
	<polygon points="304.33 257.28 308.13 257.28 308.13 247.08 304.33 247.08"/>
	<polygon points="252.01 261.01 254.88 261.01 254.88 247.08 252.01 247.08"/>
	<polygon points="245.9 261.01 248.77 261.01 248.77 247.08 245.9 247.08"/>
	<polygon points="239.96 261.01 242.83 261.01 242.83 247.08 239.96 247.08"/>
	<polygon points="263.9 261.01 266.77 261.01 266.77 247.08 263.9 247.08"/>
	<polygon points="257.95 261.01 260.82 261.01 260.82 247.08 257.95 247.08"/>
	<polygon points="276.12 261.01 278.99 261.01 278.99 247.08 276.12 247.08"/>
	<polygon points="270.01 261.01 272.88 261.01 272.88 247.08 270.01 247.08"/>
	<polygon points="234.01 261.01 236.88 261.01 236.88 247.08 234.01 247.08"/>
	<polygon points="357.64 170.93 346.39 169.48 329.88 190.74 342.97 192.13"/>
	<polygon points="376.05 173.3 364.89 171.86 351.12 193 364.1 194.38"/>
	<polygon points="148.89 194.38 161.88 193 148.1 171.87 136.94 173.3"/>
	<polygon points="221.64 198.07 220.84 201.26 292.17 201.26 291.36 198.07"/>
	<polygon points="256.5 122.11 235.82 127.15 239.48 128.9 256.5 124.61 273.52 128.9 277.18 127.16"/>
	<polygon points="256.5 127.74 243.76 130.94 248.08 133.01 256.5 130.87 264.92 133.01 269.24 130.94"/>
	<polygon points="256.5 133.51 251.7 134.73 256.5 137.03 261.3 134.74"/>
	<polygon points="136.94 154.75 150.23 151.4 145.81 149.39 125.99 153.99 131.42 163.58 141.83 162.25"/>
	<polygon points="381.57 163.57 387 153.99 367.2 149.39 362.77 151.4 376.05 154.75 371.16 162.24"/>
	<path d="m284.9 134.88c-1.3799 0.67725-2.8291 1.3892-4.2891 2.106l56.4 14.298 4.689-2.1235-56.8-14.281z"/>
	<path d="m277.04 138.75c-1.835 0.90332-3.5991 1.772-5.1572 2.5415l54.445 14.84 6.8174-3.0879-56.105-14.293z"/>
	<path d="m292.85 130.98c-0.88525 0.43359-2.1919 1.0742-3.7642 1.8452l56.97 14.36 4.6186-2.0918-57.825-14.114z"/>
	<path d="m223.94 132.82c-1.5483-0.76074-2.835-1.3911-3.7642-1.8447l-57.854 14.12 4.6186 2.0918 56.999-14.367z"/>
	<path d="m232.4 136.98c-1.4683-0.72363-2.9131-1.4351-4.2803-2.1084l-56.82 14.286 4.688 2.1235 56.412-14.301z"/>
	<path d="m179.85 153.04 6.8169 3.0879 54.444-14.84c-1.6348-0.80811-3.3818-1.6699-5.1509-2.543l-56.11 14.295z"/>
	<polygon points="348.84 157.71 345.94 159.02 364.25 161.36"/>
	<polygon points="353.69 155.51 366.11 158.68 368.1 155.8 358.42 153.37"/>
	<polygon points="164.15 157.7 148.74 161.36 167.06 159.02"/>
	<polygon points="159.31 155.51 146.92 158.74 144.89 155.8 154.58 153.37"/>
	<polygon points="204.56 212.69 174.71 212.69 169.38 204.51 155.86 206.68 162.55 218.46 202.75 218.46 203.68 215.46 203.68 215.46"/>
	<polygon points="350.44 218.46 357.13 206.67 351.54 205.78 343.61 204.51 338.28 212.69 308.45 212.69 310.26 218.46"/>
	<polygon points="295.05 212.69 217.96 212.69 216.5 218.46 296.5 218.46 295.75 215.46 295.75 215.46"/>
	<polygon points="208.14 201.26 209.11 198.14 177.66 203.18 181.75 209.08 205.68 209.08 207.2 204.26 198.1 204.26 201.1 201.26"/>
	<polygon points="292.92 204.26 220.08 204.26 219.38 207.03 219.38 207.03 218.86 209.08 294.14 209.08 293.74 207.48 293.62 207.03 293.62 207.03"/>
	<polygon points="335.33 203.18 303.89 198.14 304.87 201.26 311.89 201.26 311.91 201.26 314.91 204.26 305.81 204.26 307.32 209.08 331.24 209.08 335.32 203.19 335.34 203.18"/>
	<polygon points="191.42 189.85 201.94 188.73 182.24 167.47 173.4 168.6"/>
	<polygon points="166.6 169.48 155.35 170.93 170.02 192.13 183.11 190.74"/>
	<polygon points="311.07 188.73 321.57 189.85 339.6 168.6 330.77 167.47"/>
</g>
<g fill="#141414">
	<path d="m256.94 64.474c-106.29 0-192.46 57.048-192.46 127.42 0 70.372 86.167 127.42 192.46 127.42s192.46-57.049 192.46-127.42c0-70.373-86.167-127.42-192.46-127.42zm0 6c50.243 0 97.398 12.9 132.78 36.324 34.618 22.919 53.682 53.141 53.682 85.097 0 31.956-19.064 62.179-53.682 85.097-35.38 23.424-82.535 36.324-132.78 36.324-50.243 0-97.398-12.9-132.78-36.324-34.618-22.918-53.683-53.141-53.683-85.097 0-31.957 19.065-62.178 53.683-85.097 35.38-23.424 82.535-36.324 132.78-36.324"/>
	<path d="m222.77 254.29h-4.5493v-10.393h4.5493v10.393zm-26.342 0h-4.187v-10.393h4.187v10.393zm-8.9878 0h-4.187v-10.393h4.187v10.393zm-8.9873 0h-4.187v-10.393h4.187v10.393zm-9.1147 0h-4.187v-10.393h4.187v10.393zm-9.2158 0h-4.187v-10.393h4.187v10.393zm-8.9443-16.018-0.00195 21.512h49.899v-15.887h11.652v17.108h15.369v-15.812l3.1104-7.1172-80.028 0.19531z"/>
	<path d="m357 254.29h-4.2832v-10.393h4.2832v10.393zm-8.5703 0h-4.2827v-10.393h4.2827v10.393zm-9.1938 0h-4.2832v-10.393h4.2832v10.393zm-9.3252 0h-4.2827v-10.393h4.2827v10.393zm-9.064 0h-4.2827v-10.393h4.2827v10.393zm-26.138 0h-4.519v-10.393h4.519v10.393zm-12.834-16.213 3.0728 6.9336v15.995h15.5v-17.108h11.572v15.887h49.59l0.00195-21.512-79.737-0.19531z"/>
	<path d="m335.06 160.66 31.82-14.416 27.4 6.3584-7.8027 14.625-51.417-6.5679zm34.766 37.346-66.271-7.0532 24.838-26.815 55.784 7.189-14.352 26.679zm-13.451 24.439-48.01 0.01367-8.792-28.043 66.403 10.641-9.6011 17.389zm-143.98 0.01367 7.1558-28.391h73.895l7.1562 28.391h-88.207zm-55.772-0.01367-9.6006-17.389 66.403-10.641-8.793 28.043-48.009-0.01367zm-27.803-51.119 55.785-7.189 24.838 26.815-66.27 7.0532-14.353-26.679zm-10.103-18.725 27.4-6.3584 31.82 14.416-51.417 6.5679-7.8032-14.625zm103.13-24.191c-0.00781 0.02002-0.0166 0.04053-0.0249 0.06055 0.0249-0.06055 27.718 13.634 27.718 13.634l-63.108 17.208-32.719-14.82c22.711-5.3608 45.423-10.722 68.134-16.083zm34.653-8.3438 28.218 6.8144-28.218 13.471-28.219-13.471 28.219-6.8144zm66.063 43.181-26.844 26.33h-78.438l-26.845-26.33 66.064-19.614 66.063 19.614zm36.724-18.755-32.719 14.82-63.108-17.208s27.692-13.695 27.717-13.634c-0.00781-0.02002-0.01709-0.04053-0.0249-0.06055 22.711 5.3608 45.423 10.722 68.135 16.083zm-102.79-26.685-142.97 32.049 37.747 75.849h210.44l37.747-75.849-142.97-32.049z"/>
	<polygon points="232.13 264.31 232.13 267.97 280.87 267.97 280.87 264.31"/>
	<polygon points="402.18 151.17 401.46 152.6 364.41 227.04 363.58 228.7 361.72 228.7 151.28 228.7 149.42 228.7 148.59 227.04 111.09 151.68 110.83 151.17 107.69 155.75 107.69 172.38 148.39 259.87 148.39 235.45 235.71 235.26 232.05 243.76 281.05 243.76 277.4 235.26 364.62 235.45 364.62 259.87 405.33 172.38 405.33 155.75"/>
	<polygon points="256.5 146.76 197.27 164.35 210.04 176.86 250.05 164.95 250.05 166.08 252.78 167.82 260.23 167.82 262.95 166.08 262.95 164.95 302.97 176.86 315.73 164.35"/>
</g>
</svg>
